<svg xmlns="http://www.w3.org/2000/svg" id="large-logo" viewBox="0 0 524.58 151.11"><path fill="#f04943" d="M479.63 93.55L355.38 88.8l-120 4 115.75 5 128.5-4.25z"></path><path fill="#1c130c" d="M520.2 16.15a4.62 4.62 0 0 1 4.38 4.85 4.58 4.58 0 1 1-9.15-.32 4.65 4.65 0 0 1 4.75-4.56zm-.05.73a3.87 3.87 0 0 0-3.84 3.86 3.73 3.73 0 1 0 7.43.28 3.86 3.86 0 0 0-3.57-4.14zm-1.1 6.71h-.82l.19-5.28a10.24 10.24 0 0 1 1.46-.07 2.71 2.71 0 0 1 1.59.45 1.38 1.38 0 0 1-.62 2.36c.45.1.75.53.82 1.31a4.47 4.47 0 0 0 .33 1.34h-.87a4 4 0 0 1-.3-1.36 1 1 0 0 0-1.08-1h-.58zm.11-2.91h.59c.68 0 1.27-.21 1.29-.86 0-.47-.3-.94-1.22-1a3.42 3.42 0 0 0-.6 0zM310.74 13.32h22.47l-10.55 61H303l2.25-9.91h-24.1l-8.89 9.91h-19.73zm2.56 15.37h-.15l-20.61 23.05H308zM386.58 26.2h-9.64l-26.59 48.12h-4.24l2.55-29.7 9.9-18.42h-24.21l8-13h52.16zm5.87 0l7.56-13h50.61l-7.82 13h-21.63l-9.88 18.39L381 74.32h-4.8l26.59-48.12zM499 50.81c-9.62 13.19-23 25.36-49.15 25.36-23.32 0-28.29-11.36-16.48-32.37 11.47-20.41 28.92-32.36 52.86-32.36 16.84 0 28.34 4.27 20.5 25.36h-20.46c1.36-4.36 2.79-11.7-7.64-11.7-11.51 0-20.14 8.63-25.8 18.7s-7.12 18.7 4.78 18.7c8.26 0 15.79-4.61 21-11.69z"></path><path fill="#f04943" d="M35.68 13.2h10.7L45 39h-9.33l.48-4.19H24.68L21 39h-9.34zm2.16 6.5h-.07l-8.44 9.76h7.36zM58.56 13.2h12.79L69 30.22h.07l14.32-17h12.82L83.59 39h-8.24l9.46-19.3h-.08L68.37 39h-7.21l2.54-19.3h-.08L54.17 39h-8.24zM101.52 13.2h26.29l-2.73 5.56h-17.54l-2.27 4.66h16.44l-2.63 5.35h-16.44l-2.27 4.66h17.55L115.18 39H88.89zM131.49 13.2h21c6.43 0 7.37 2.89 5.24 7.19a10.49 10.49 0 0 1-7.05 5.89l-.05.07c1.39.54 2.07 1.84.91 4.63-2.09 5.09-2.72 6.71-2.26 8h-9.6a12.34 12.34 0 0 1 1.37-3.82c1.95-4.05 1-4.77-1.23-4.77h-8l-4.2 8.61h-8.75zm3.18 11.42h8.42a5 5 0 0 0 4.64-2.86c.83-1.7.24-2.78-1.89-2.78h-8.42zM165.66 13.2h8.75L161.79 39H153zM202.34 29.06c-3.76 5.56-9.44 10.73-21.87 10.73-11.1 0-14.13-4.81-9.8-13.69 4.23-8.64 11.79-13.69 23.19-13.69 8 0 13.78 1.8 11.31 10.73h-9.75c.39-1.85.62-4.95-4.35-4.95-5.48 0-9 3.64-11.13 7.91s-2.27 7.9 3.4 7.9a11.09 11.09 0 0 0 9.29-4.95zM220 13.2h10.7L229.38 39H220l.48-4.19H209L205.37 39H196zm2.16 6.5h-.07l-8.44 9.76H221zM242.9 13.2H253l4.28 16.15h.07l7.9-16.15h8.45L261.05 39h-9.67l-4.6-16.29h-.08l-8 16.29h-8.46z"></path><path fill="#005796" d="M3 48.63h28l-2.82 5.63h-9.63l-9.8 19.51H0l9.8-19.51H.17zM48.26 47.86c9.27 0 15.66 2.92 10.42 13.34S44.14 74.54 34.87 74.54 19.25 71.62 24.48 61.2 39 47.86 48.26 47.86zm-10.56 21c4.7 0 9.06-2.43 11.72-7.71s.72-7.71-4-7.71S36.4 56 33.75 61.2s-.75 7.71 3.95 7.71zM68.2 48.63h21c6.44 0 7.38 2.82 5.25 7a10.48 10.48 0 0 1-7 5.74l-.05.07c1.39.52 2.07 1.79.9 4.5-2.08 5-2.71 6.55-2.26 7.82h-9.6A12.17 12.17 0 0 1 77.8 70c2-4 1-4.65-1.24-4.65h-8l-4.22 8.38h-8.77zm3.17 11.13h8.43A5 5 0 0 0 84.44 57c.83-1.65.24-2.71-1.89-2.71h-8.42zM124.78 64.09c-3.76 5.42-9.44 10.45-21.87 10.45-11.1 0-14.13-4.68-9.8-13.34 4.23-8.42 11.79-13.34 23.19-13.34 8 0 13.78 1.76 11.31 10.45h-9.75c.39-1.79.62-4.82-4.35-4.82-5.48 0-9.05 3.55-11.13 7.71s-2.27 7.71 3.39 7.71a11.18 11.18 0 0 0 9.3-4.82zM150.91 63.24h-13.28l-5.3 10.53h-8.75l12.63-25.14H145l-4.5 9h13.28l4.49-9H167l-12.64 25.14h-8.75zM181.66 48.63h28l-2.83 5.63h-9.64l-9.8 19.51h-8.75l9.8-19.51h-9.63zM212.41 48.63h8.75l-12.62 25.14h-8.75zM225.83 48.63h19.42c7.14 0 7.85 3.63 5.45 8.38a14.65 14.65 0 0 1-13.45 8.38h-11.07L222 73.77h-8.75zm2.95 11.55h7.8a5.11 5.11 0 0 0 5.08-3.18c1.13-2.22.52-3.17-1.91-3.17H232zM356.71 99.87l2.34 16.7-5.03-16.51-26.18 51.05 21.59-52.05-15.09 18.58 13.93-20.32-45 23.67 44.11-25.82-64.11-2.2 64.84-.25-20.26-15.94 21.26 13.9-10.02-13.51 11.97 11.71-.76-10.13 3.57 9.06 16.75-26.76-11.32 26.7 11.02-9-10.84 10.52 18.38-8.06L360.9 92.7l60.49-.31-61.68 2.82 13.07 8.26-14.12-6.44 12.61 16.45-14.56-13.61z"></path><path fill="#f04943" d="M518.29 4.75L394.04 0l-120 4 115.75 5 128.5-4.25z"></path></svg>