<?xml version="1.0" encoding="utf-8"?>
<!-- Generator: Adobe Illustrator 14.0.0, SVG Export Plug-In . SVG Version: 6.00 Build 43363)  -->
<!DOCTYPE svg PUBLIC "-//W3C//DTD SVG 1.1//EN" "http://www.w3.org/Graphics/SVG/1.1/DTD/svg11.dtd">
<svg version="1.1" id="Warstwa_1" xmlns="http://www.w3.org/2000/svg" xmlns:xlink="http://www.w3.org/1999/xlink" x="0px" y="0px"
	 width="310.5px" height="120px" viewBox="0 0 310.5 120" style="enable-background:new 0 0 310.5 120;" xml:space="preserve">
<style type="text/css">
<![CDATA[
	.st0{clip-path:url(#SVGID_2_);fill:#A5AAB0;}
	.st1{clip-path:url(#SVGID_2_);fill:#147BB8;}
	.st2{clip-path:url(#SVGID_2_);}
	.st3{fill:#FFFFFF;}
]]>
</style>
<g>
	<defs>
		<rect id="SVGID_1_" width="310.5" height="120"/>
	</defs>
	<clipPath id="SVGID_2_">
		<use xlink:href="#SVGID_1_"  style="overflow:visible;"/>
	</clipPath>
	<polygon class="st0" points="49.3,35.4 49.3,44.6 9.2,44.6 9.2,58.2 0,64.4 0,44.6 0,35.4 9.2,35.4 	"/>
	<polygon class="st1" points="49.3,49.2 32.8,49.2 0,70.8 0,75.4 0,81.5 0,84.6 40,84.6 49.3,84.6 49.3,75.4 49.3,55.5 40,61.6 
		40,75.4 9.4,75.4 	"/>
	<g class="st2">
		<path class="st3" d="M310.5,56.3c0,3.8-2.5,7-6.9,7c-4.4,0-6.9-3.2-6.9-7c0-3.8,2.5-7,6.9-7C308,49.2,310.5,52.4,310.5,56.3
			 M298.1,56.2c0,3.2,2,5.7,5.5,5.7c3.5,0,5.5-2.5,5.5-5.7c0-3.2-2-5.7-5.5-5.7C300.1,50.5,298.1,53,298.1,56.2L298.1,56.2z
			 M304.9,57.1c2.8-0.5,2.5-4.6-0.7-4.6h-3.3v7.2h1.3v-2.5h1.3l2,2.5h1.5v-0.3L304.9,57.1L304.9,57.1z M304.2,53.8
			c1.6,0,1.6,2.3,0,2.3h-1.9v-2.3H304.2z"/>
		<polygon class="st3" points="66.1,49.2 93.2,49.2 93.2,52.6 76.2,77.2 93.6,77.2 93.6,84.6 65.3,84.6 65.3,80.5 82.5,56 66.1,56 
					"/>
		<path class="st3" d="M127.3,78.5h-18.1l-2.6,6.1h-8.5L114,49.2h8.6l15.9,35.4h-8.5L127.3,78.5z M118.3,57.2l-6.1,14.4h12.2
			L118.3,57.2z"/>
		<polygon class="st3" points="160.1,66.4 174.6,49.2 174.5,49.2 164.9,49.2 153.6,63.3 150.7,63.3 150.7,49.2 142.9,49.2 
			142.9,84.6 150.7,84.6 150.7,70.2 153.7,70.2 166.2,84.6 175.7,84.6 176.1,84.6 		"/>
		<polygon class="st3" points="212.6,60 201.1,74.4 189.7,59.9 189.7,84.6 181.8,84.6 181.8,49.3 190.8,49.3 201.1,62.8 211.5,49.3 
			220.4,49.3 220.4,84.6 212.6,84.6 		"/>
		<polygon class="st3" points="254.6,84.6 228.3,84.6 228.3,49.2 254.6,49.2 254.6,56.4 236.1,56.4 236.1,63.3 254.6,63.3 
			254.6,70.2 236.1,70.2 236.1,77.3 254.6,77.3 		"/>
		<polygon class="st3" points="271.7,56.2 260.9,56.2 260.9,49.2 290.3,49.2 290.3,56.2 279.5,56.2 279.5,84.6 271.7,84.6 		"/>
	</g>
</g>
</svg>
