<?xml version="1.0" encoding="iso-8859-1"?>
<!-- Generator: Adobe Illustrator 19.0.0, SVG Export Plug-In . SVG Version: 6.00 Build 0)  -->
<svg version="1.1" id="Capa_1" xmlns="http://www.w3.org/2000/svg" xmlns:xlink="http://www.w3.org/1999/xlink" x="0px" y="0px"
	 viewBox="0 0 496.485 496.485" style="enable-background:new 0 0 496.485 496.485;" xml:space="preserve">
<circle style="fill:#4FBF9F;" cx="295.564" cy="295.564" r="200.921"/>
<circle style="fill:#E1E6E9;" cx="295.564" cy="295.564" r="166.788"/>
<path style="fill:#193651;" d="M295.564,470.109c-96.194,0-174.545-78.352-174.545-174.545s78.352-174.545,174.545-174.545
	s174.545,78.352,174.545,174.545S391.758,470.109,295.564,470.109z M295.564,135.758c-88.436,0-159.806,71.37-159.806,159.806
	s71.37,159.806,159.806,159.806S455.37,384,455.37,295.564C455.37,207.127,384,135.758,295.564,135.758z"/>
<path style="fill:#FFFFFF;" d="M295.564,435.976c-77.576,0-140.412-62.836-140.412-140.412s62.836-140.412,140.412-140.412
	s140.412,62.836,140.412,140.412C435.976,373.139,373.139,435.976,295.564,435.976z"/>
<g>
	<rect x="325.042" y="37.236" style="fill:#193651;" width="14.739" height="14.739"/>
	<rect x="364.606" y="37.236" style="fill:#193651;" width="14.739" height="14.739"/>
	<rect x="403.394" y="37.236" style="fill:#193651;" width="14.739" height="14.739"/>
</g>
<rect x="29.479" y="331.249" style="fill:#193651;" width="14.739" height="14.739"/>
<g>
	<rect x="29.479" y="370.812" style="fill:#193651;" width="14.739" height="14.739"/>
	<rect x="29.479" y="409.6" style="fill:#193651;" width="14.739" height="14.739"/>
</g>
<path style="fill:#FDBF5E;" d="M342.109,228.073c0,23.273-20.945,59.733-47.321,59.733c-26.376,0-47.321-36.461-47.321-59.733
	s20.945-44.218,47.321-44.218C321.164,184.63,342.109,204.8,342.109,228.073z"/>
<path style="fill:#193651;" d="M304.097,180.752c-20.17-3.879-29.479,6.206-31.03,8.533c-0.776,0-0.776,0.776-1.552,0.776
	c-30.255-6.206-24.048,38.012-24.048,38.012c0,6.982,2.327,15.515,5.43,24.048c0-6.206,0.776-34.909,17.067-31.03
	c0,0,19.394,13.964,46.545,0c0,0,17.067-6.206,20.17,29.479C340.558,243.588,363.83,192.388,304.097,180.752z"/>
<path style="fill:#2EA2DB;" d="M375.467,394.085H215.661v-58.182c0-25.6,20.945-47.321,47.321-47.321h65.164
	c25.6,0,47.321,20.945,47.321,47.321L375.467,394.085L375.467,394.085z"/>
<path style="fill:#FDBF5E;" d="M262.982,288.582l20.945,35.685c5.43,9.309,18.618,9.309,24.048,0l20.945-35.685H262.982z"/>
<g>
	<rect x="246.691" y="356.073" style="fill:#193651;" width="14.739" height="14.739"/>
	<rect x="288.582" y="356.073" style="fill:#193651;" width="14.739" height="14.739"/>
	<rect x="330.473" y="356.073" style="fill:#193651;" width="14.739" height="14.739"/>
</g>
<polygon style="fill:#F16051;" points="239.709,6.982 6.982,6.982 6.982,159.03 122.57,159.03 211.006,201.697 211.006,159.03 
	239.709,159.03 "/>
<path style="fill:#193651;" d="M211.006,208.679c-0.776,0-2.327,0-3.103-0.776l-86.885-41.891H6.982
	c-3.879,0-6.982-3.103-6.982-6.982V6.982C0,3.103,3.103,0,6.982,0h232.727c3.879,0,6.982,3.103,6.982,6.982v151.273
	c0,3.879-3.103,6.982-6.982,6.982h-21.721v36.461c0,2.327-1.552,4.655-3.103,6.206C213.333,208.679,212.558,208.679,211.006,208.679
	z M14.739,151.273h108.606c0.776,0,2.327,0,3.103,0.776l77.576,38.012v-31.03c0-3.879,3.103-6.982,6.982-6.982h21.721V14.739H14.739
	V151.273z"/>
<polygon style="fill:#FFFFFF;" points="129.552,130.327 36.461,130.327 36.461,36.461 211.006,36.461 211.006,130.327 
	182.303,130.327 182.303,155.152 "/>
<g>
	<circle style="fill:#E1E6E9;" cx="78.352" cy="83.006" r="12.412"/>
	<circle style="fill:#E1E6E9;" cx="123.345" cy="83.006" r="12.412"/>
	<circle style="fill:#E1E6E9;" cx="169.115" cy="83.006" r="12.412"/>
</g>
<g>
</g>
<g>
</g>
<g>
</g>
<g>
</g>
<g>
</g>
<g>
</g>
<g>
</g>
<g>
</g>
<g>
</g>
<g>
</g>
<g>
</g>
<g>
</g>
<g>
</g>
<g>
</g>
<g>
</g>
</svg>
