<?xml version="1.0"?>
<svg xmlns="http://www.w3.org/2000/svg" viewBox="0 -34 511.99983 511" width="512px" height="512px" class=""><g><path d="m415.625 116.191406c-6.78125 21.738282-30.117188 33.976563-51.859375 27.191406l-144.105469-44.964843c-21.742187-6.78125-33.980468-30.121094-27.195312-51.859375 6.785156-21.738282 30.121094-33.976563 51.859375-27.195313l144.109375 44.964844c21.738281 6.785156 33.976562 30.121094 27.191406 51.863281zm0 0" fill="#92dd7a" data-original="#92DD7A" class="" style="fill:#1600FF" data-old_color="#0016FF"/><path d="m192.464844 46.558594c-6.785156 21.738281 5.453125 45.078125 27.195312 51.859375l86.953125 27.132812c11.542969-34.257812 12.351563-62.460937 9.253907-83.863281l-71.542969-22.324219c-21.738281-6.78125-45.078125 5.453125-51.859375 27.195313zm0 0" fill="#7ec66a" data-original="#7EC66A" class="" style="fill:#94D6DC" data-old_color="#94D5DB"/><path d="m233.824219 394.832031v-91.804687c0-53.339844-43.640625-96.976563-96.976563-96.976563-53.335937 0-96.976562 43.636719-96.976562 96.976563v91.804687zm0 0" fill="#92dd7a" data-original="#92DD7A" class="" style="fill:#1600FF" data-old_color="#0016FF"/><path d="m152.800781 342.953125c21.648438-14.683594 23.9375-32.09375 23.9375-32.09375v-96.171875c-12.183593-5.546875-25.695312-8.636719-39.890625-8.636719-53.339844 0-96.976562 43.636719-96.976562 96.976563v91.804687h84.214844c.515624-20.90625 11.34375-40.097656 28.714843-51.878906zm0 0" fill="#7ec66a" data-original="#7EC66A" class="" style="fill:#94D6DC" data-old_color="#94D5DB"/><path d="m501.226562 224.027344c-9.761718 5.035156-21.757812 1.207031-26.796874-8.554688l-10.585938-20.523437c-5.378906-10.421875-18.238281-14.527344-28.660156-9.148438-10.425782 5.378907-14.53125 18.234375-9.148438 28.660157l10.585938 20.523437c5.039062 9.757813 1.207031 21.757813-8.554688 26.792969-9.757812 5.039062-21.757812 1.207031-26.792968-8.554688l-10.589844-20.519531c-15.4375-29.914063-3.65625-66.8125 26.257812-82.25 29.917969-15.4375 66.8125-3.660156 82.25 26.257813l10.589844 20.519531c5.039062 9.761719 1.207031 21.757812-8.554688 26.796875zm0 0" fill="#acabb1" data-original="#ACABB1" class="" style="fill:#FF0000" data-old_color="#ff0000"/><path d="m114.371094 321.980469c-28.917969-12.550781-42.304688-46.480469-29.753906-75.394531l91.851562-211.617188c12.550781-28.917969 46.480469-42.304688 75.398438-29.753906 28.914062 12.550781 42.304687 46.480468 29.753906 75.394531l-91.851563 211.617187c-12.550781 28.917969-46.480469 42.304688-75.398437 29.753907zm0 0" fill="#b1ef97" data-original="#B1EF97" class="" style="fill:#00094F" data-old_color="#000A4F"/><path d="m251.832031 56.992188c0 12.394531-10.046875 22.441406-22.441406 22.441406s-22.441406-10.046875-22.441406-22.441406c0-12.394532 10.046875-22.441407 22.441406-22.441407s22.441406 10.046875 22.441406 22.441407zm0 0" fill="#acabb1" data-original="#ACABB1" class="" style="fill:#FF0000" data-old_color="#ff0000"/><path d="m159.289062 270.203125c0 12.394531-10.046874 22.445313-22.441406 22.445313-12.394531 0-22.445312-10.050782-22.445312-22.445313s10.050781-22.441406 22.445312-22.441406c12.394532 0 22.441406 10.046875 22.441406 22.441406zm0 0" fill="#acabb1" data-original="#ACABB1" class="" style="fill:#FF0000" data-old_color="#ff0000"/><path d="m462.277344 112.878906c0 31.625-25.640625 57.265625-57.265625 57.265625s-57.265625-25.640625-57.265625-57.265625c0-31.628906 25.640625-57.265625 57.265625-57.265625s57.265625 25.636719 57.265625 57.265625zm0 0" fill="#b1ef97" data-original="#B1EF97" class="" style="fill:#00094F" data-old_color="#000A4F"/><path d="m427.453125 112.878906c0 12.394532-10.046875 22.441406-22.441406 22.441406s-22.441407-10.046874-22.441407-22.441406c0-12.394531 10.046876-22.441406 22.441407-22.441406s22.441406 10.046875 22.441406 22.441406zm0 0" fill="#acabb1" data-original="#ACABB1" class="" style="fill:#FF0000" data-old_color="#ff0000"/><path d="m238.527344 444.476562h-203.359375c-19.34375 0-35.167969-15.824218-35.167969-35.164062 0-19.34375 15.824219-35.167969 35.167969-35.167969h203.359375c19.339844 0 35.164062 15.824219 35.164062 35.167969 0 19.339844-15.824218 35.164062-35.164062 35.164062zm0 0" fill="#acabb1" data-original="#ACABB1" class="" style="fill:#FF0000" data-old_color="#ff0000"/><path d="m85.03125 409.3125c0-19.34375 15.824219-35.167969 35.167969-35.167969h-85.03125c-19.34375 0-35.167969 15.824219-35.167969 35.167969 0 19.339844 15.824219 35.167969 35.167969 35.167969h85.03125c-19.339844-.003907-35.167969-15.828125-35.167969-35.167969zm0 0" fill="#898890" data-original="#898890" class="active-path" style="fill:#C80202" data-old_color="#C60202"/></g> </svg>
