<?xml version="1.0"?>
<svg xmlns="http://www.w3.org/2000/svg" xmlns:xlink="http://www.w3.org/1999/xlink" version="1.1" id="Capa_1" x="0px" y="0px" viewBox="0 0 512 512" style="enable-background:new 0 0 512 512;" xml:space="preserve" width="512px" height="512px" class=""><g><path style="fill:#6C9BAA;" d="M164.774,41.989c-4.202-0.854-8.573-0.167-12.306,1.94c-17.008,9.593-62.316,35.147-81.275,45.84  c-4.475,2.524-7.654,6.864-8.704,11.894c-4.356,20.852-12.398,59.353-14.996,71.786h64.891l-11.211-53.67  c-0.438-2.097,0.6-4.226,2.524-5.171l52.29-25.702c4.446-2.185,9.599-2.423,14.227-0.658l93.405,35.629v215.52h64.891  c0-9.743,0-252.49,0-264.159C322.602,74.039,196.036,48.337,164.774,41.989z" data-original="#6C9BAA"/><path style="fill:#3C5A73;" d="M499.862,372.7H11.278C5.05,372.7,0,367.65,0,361.421v-53.674c0-6.229,5.05-11.278,11.278-11.278  h488.583c6.229,0,11.278,5.05,11.278,11.278v53.674C511.14,367.65,506.091,372.7,499.862,372.7z" data-original="#3C5A73"/><path style="fill:#55696E;" d="M490.504,484.688c-0.023,0-0.045,0-0.067,0c-11.873-0.036-21.469-9.69-21.433-21.563V291.327  c0.036-11.851,10.175-21.433,22.017-21.433c0.023,0,0.045,0,0.067,0c11.873,0.036,20.948,9.69,20.912,21.563v171.799  C511.964,475.107,502.345,484.688,490.504,484.688z" data-original="#55696E" class=""/><rect x="251.567" y="108.375" style="fill:#46738C;" width="88.98" height="188.104" data-original="#46738C"/><circle style="fill:#87AFB9;" cx="296.062" cy="109.733" r="49.653" data-original="#87AFB9"/><circle style="fill:#FFFFFF" cx="296.062" cy="109.733" r="22.203" data-original="#FFFFFF" class=""/><path style="fill:#A5C8CD;" d="M134.099,225.638c0,5.162-4.185,9.347-9.347,9.347h-11.255c-5.162,0-9.347-4.185-9.347-9.347v-24.746  c0-1.553-0.829-2.989-2.174-3.767l-22.039-12.724l-22.038,12.725c-1.346,0.777-2.174,2.212-2.174,3.767v24.746  c0,5.162-4.185,9.347-9.347,9.347H35.122c-5.162,0-9.347-4.185-9.347-9.347V187.6c0-4.028,2.148-7.75,5.637-9.764l35.081-20.254  c8.32-4.804,18.571-4.804,26.891,0l35.081,20.254c3.488,2.014,5.637,5.735,5.637,9.764L134.099,225.638L134.099,225.638z" data-original="#A5C8CD"/><circle style="fill:#64AFFF;" cx="79.936" cy="231.987" r="24.886" data-original="#64AFFF" class=""/><path style="fill:#748488;" d="M436.84,484.688c-0.001,0-0.001,0-0.002,0c-11.873-0.001-21.497-9.627-21.496-21.5V270.761  c0.001-11.872,9.641-21.496,21.513-21.496c0.001,0,0.001,0,0.002,0c11.873,0.001,21.483,9.627,21.482,21.5v192.427  C458.338,475.065,448.712,484.688,436.84,484.688z" data-original="#748488" class=""/><path style="fill:#3C5A73;" d="M349.306,296.47H242.818v-22.305c0-2.592,2.101-4.693,4.693-4.693h97.103  c2.592,0,4.693,2.1,4.693,4.693L349.306,296.47L349.306,296.47z" data-original="#3C5A73"/><circle style="fill:#FFAA00" cx="452.319" cy="67.444" r="40.133" data-original="#80391B" class="active-path" data-old_color="#FFB200"/><path style="fill:#C8E6EB;" d="M363.127,179.672l-42.849-52.507c-3.336-4.088-2.726-10.107,1.362-13.443  c4.09-3.337,10.108-2.725,13.443,1.362l42.849,52.507c3.336,4.088,2.726,10.107-1.362,13.443  C372.483,184.372,366.463,183.76,363.127,179.672z" data-original="#C8E6EB" class=""/><path style="fill:#FA503C;" d="M415.342,289.35H512V148.366c0-13.934-11.295-25.229-25.229-25.229h-46.199  c-13.934,0-25.229,11.295-25.229,25.229L415.342,289.35L415.342,289.35z" data-original="#FA503C" class=""/><path style="fill:#FFAA00" d="M407.559,214.164l-63.427-32.436c-9.037-4.621-12.616-15.694-7.995-24.729  c4.62-9.038,15.692-12.616,24.729-7.995l52.158,26.674l46.552-41.951c7.538-6.795,19.159-6.192,25.954,1.349  c6.796,7.539,6.191,19.16-1.35,25.955l-55.953,50.424C422.61,216.518,414.395,217.66,407.559,214.164z" data-original="#80391B" class="active-path" data-old_color="#FFB200"/><path style="fill:#E83E29" d="M455.041,187.292l29.141-26.262c7.54-6.795,8.144-18.415,1.35-25.955  c-6.796-7.54-18.416-8.143-25.954-1.349l-28.471,25.658L455.041,187.292z" data-original="#E83E29" class=""/></g> </svg>
