<?xml version="1.0" encoding="iso-8859-1"?>
<!-- Generator: Adobe Illustrator 19.0.0, SVG Export Plug-In . SVG Version: 6.00 Build 0)  -->
<svg version="1.1" id="Capa_1" xmlns="http://www.w3.org/2000/svg" xmlns:xlink="http://www.w3.org/1999/xlink" x="0px" y="0px"
	 viewBox="0 0 512 512" style="enable-background:new 0 0 512 512;" xml:space="preserve">
<polygon style="fill:#092339;" points="135,60.936 135,210.936 386.271,210.936 437,60.936 "/>
<path style="fill:#77AAD4;" d="M452,363.899V287h-30v76.899c-25.849,6.678-45,30.195-45,58.101v60h30v-60c0-16.542,13.458-30,30-30
	s30,13.458,30,30v60h30v-60C497,394.094,477.849,370.576,452,363.899z"/>
<path style="fill:#0E3759;" d="M135,0L81,134.987L135,270c74.439,0,135-60.561,135-135S209.439,0,135,0z"/>
<path style="fill:#134A79;" d="M0,135c0,74.439,60.561,135,135,135V0C60.561,0,0,60.561,0,135z"/>
<polygon style="fill:#092339;" points="135,512 270,512 270,437 95,397 "/>
<polygon style="fill:#0E3759;" points="0,437 0,512 135,512 135,397 "/>
<polygon style="fill:#1D71B8;" points="95,337 135,437 270,437 210,377 "/>
<polygon style="fill:#4A8DC6;" points="135,337 60,377 0,437 135,437 "/>
<polygon style="fill:#134A79;" points="210,377 210,135 95,135 135,377 "/>
<g>
	<rect x="60" y="135" style="fill:#1D71B8;" width="75" height="242"/>
	<path style="fill:#1D71B8;" d="M135,60l-30,74.993L135,210c41.355,0,75-33.645,75-75S176.355,60,135,60z"/>
</g>
<path style="fill:#4A8DC6;" d="M60,135c0,41.355,33.645,75,75,75V60C93.645,60,60,93.645,60,135z"/>
<path style="fill:#1D71B8;" d="M437,60.936c-41.355,0-75,33.645-75,75V257c0,41.355,33.645,75,75,75s75-33.645,75-75V135.936
	C512,94.58,478.355,60.936,437,60.936z"/>
<g>
	<circle style="fill:#FFFFFF;" cx="437" cy="135.67" r="15"/>
	<circle style="fill:#FFFFFF;" cx="135" cy="135" r="15"/>
</g>
<g>
</g>
<g>
</g>
<g>
</g>
<g>
</g>
<g>
</g>
<g>
</g>
<g>
</g>
<g>
</g>
<g>
</g>
<g>
</g>
<g>
</g>
<g>
</g>
<g>
</g>
<g>
</g>
<g>
</g>
</svg>
